<svg width="200" height="200" viewBox="0 0 200 200" fill="none" xmlns="http://www.w3.org/2000/svg">
<mask id="mask0" mask-type="alpha" maskUnits="userSpaceOnUse" x="0" y="0" width="200" height="200">
<rect width="200" height="200" fill="#C4C4C4"/>
</mask>
<g mask="url(#mask0)">
<path fill-rule="evenodd" clip-rule="evenodd" d="M152.364 73.4252C150.741 46.8798 127.805 25.7142 99.9294 25.7142C71.9831 25.7142 49.1179 46.8798 47.4947 73.4252C20.8186 75.9028 0 97.6347 0 123.968C0 152 23.5709 174.723 52.5053 174.723C73.3945 174.723 91.5314 162.901 100 145.771C108.469 162.901 126.535 174.723 147.424 174.723C176.429 174.723 200 151.929 200 123.968C199.929 97.6347 179.04 75.832 152.364 73.4252Z" fill="white"/>
<path fill-rule="evenodd" clip-rule="evenodd" d="M99.8616 122.481H100.003C101.061 98.1304 121.739 78.6637 147.286 78.6637C147.286 78.0974 147.356 77.4603 147.356 76.8232C147.356 51.6227 126.114 31.165 99.9322 31.165C73.7501 31.165 52.4375 51.6227 52.4375 76.8232C52.4375 77.4603 52.5081 78.0266 52.5786 78.6637C78.1256 78.6637 98.8736 98.1304 99.8616 122.481Z" fill="#84BD00"/>
<path fill-rule="evenodd" clip-rule="evenodd" d="M52.5809 78.5928H52.4398C26.2577 78.5928 5.01562 99.0505 5.01562 124.251C5.01562 149.451 26.2577 169.909 52.4398 169.909C78.6924 169.909 99.9345 149.451 99.9345 124.251C99.9345 123.614 99.8639 123.048 99.8639 122.411C74.317 122.411 53.6395 102.944 52.5809 78.5928Z" fill="#004B87"/>
<path fill-rule="evenodd" clip-rule="evenodd" d="M147.358 78.5928H147.288C146.3 102.944 125.552 122.411 100.075 122.411C100.075 123.048 100.005 123.614 100.005 124.251C100.005 149.451 121.247 169.909 147.429 169.909C173.611 169.909 194.853 149.451 194.853 124.251C194.853 99.0505 173.541 78.5928 147.358 78.5928Z" fill="#00A3E0"/>
<path fill-rule="evenodd" clip-rule="evenodd" d="M100.074 122.481C125.621 122.411 146.299 102.944 147.287 78.6636C121.81 78.6636 101.062 98.1303 100.074 122.481Z" fill="#21AFE4"/>
<path fill-rule="evenodd" clip-rule="evenodd" d="M99.8631 122.481C98.8751 98.1303 78.127 78.6636 52.5801 78.6636C53.6387 102.944 74.3161 122.411 99.8631 122.481Z" fill="#4078A5"/>
</g>
</svg>
